<svg height="511pt" viewBox="1 -22 511.99999 511" width="511pt" xmlns="http://www.w3.org/2000/svg"><path d="m444.148438 43.722656h-413.058594c-17.175782 0-31.089844 13.921875-31.089844 31.089844v62.558594l237.621094 27.785156 237.617187-27.785156v-62.558594c0-17.167969-13.921875-31.089844-31.089843-31.089844zm0 0" fill="#da5b65"/><path d="m475.238281 137.371094v262.203125c0 17.167969-13.921875 31.089843-31.089843 31.089843h-413.058594c-17.175782 0-31.089844-13.921874-31.089844-31.089843v-262.203125zm0 0" fill="#efedee"/><path d="m89.039062.5c-10.796874 0-19.550781 8.753906-19.550781 19.554688v30.871093c0 10.800781 8.753907 19.554688 19.550781 19.554688 10.800782 0 19.554688-8.753907 19.554688-19.554688v-30.871093c0-10.800782-8.753906-19.554688-19.554688-19.554688zm0 0" fill="#bab8b9"/><path d="m188.089844.5c-10.796875 0-19.550782 8.753906-19.550782 19.554688v30.871093c0 10.800781 8.753907 19.554688 19.550782 19.554688 10.800781 0 19.554687-8.753907 19.554687-19.554688v-30.871093c0-10.800782-8.753906-19.554688-19.554687-19.554688zm0 0" fill="#bab8b9"/><path d="m287.140625.5c-10.796875 0-19.550781 8.753906-19.550781 19.554688v30.871093c0 10.800781 8.753906 19.554688 19.550781 19.554688 10.800781 0 19.554687-8.753907 19.554687-19.554688v-30.871093c0-10.800782-8.753906-19.554688-19.554687-19.554688zm0 0" fill="#bab8b9"/><path d="m386.191406.5c-10.796875 0-19.550781 8.753906-19.550781 19.554688v30.871093c0 10.800781 8.753906 19.554688 19.550781 19.554688 10.800782 0 19.554688-8.753907 19.554688-19.554688v-30.871093c0-10.800782-8.753906-19.554688-19.554688-19.554688zm0 0" fill="#bab8b9"/><path d="m475.238281 218.417969v-15.453125h-60.164062v-65.59375h-15.453125v65.59375h-52.4375v-65.59375h-15.453125v65.59375h-52.4375v-65.59375h-15.453125v65.59375h-52.4375v-65.59375h-15.453125v65.59375h-52.4375v-65.59375h-15.453125v65.59375h-52.441406v-65.59375h-15.453126v65.59375h-60.164062v15.453125h60.164062v57.871093h-60.164062v15.453126h60.164062v57.871093h-60.164062v15.453125h60.164062v65.597656h15.453126v-65.597656h52.4375v65.597656h15.453124v-65.597656h52.4375v65.597656h15.453126v-65.597656h52.4375v65.597656h15.453124v-65.597656h52.441407v65.597656h15.449219v-65.597656h52.441406v65.597656h15.453125v-65.597656h60.164062v-15.453125h-60.164062v-57.871093h60.164062v-15.453126h-60.164062v-57.871093zm-143.507812 0v57.871093h-52.4375v-57.871093zm-67.890625 0v57.871093h-52.441406v-57.871093zm-67.890625 0v57.871093h-52.441407v-57.871093zm-120.332031 0h52.4375v57.871093h-52.4375zm0 131.195312v-57.871093h52.4375v57.871093zm67.890624 0v-57.871093h52.4375v57.871093zm67.890626 0v-57.871093h52.441406v57.871093zm67.894531 0v-57.871093h52.4375v57.871093zm120.328125 0h-52.4375v-57.871093h52.4375zm0-73.324219h-52.4375v-57.867187h52.4375zm0 0" fill="#3a484a"/><path d="m512 359.914062c0 59.25-48.03125 107.28125-107.285156 107.28125-59.25 0-107.28125-48.03125-107.28125-107.28125 0-59.253906 48.03125-107.285156 107.28125-107.285156 59.253906 0 107.285156 48.03125 107.285156 107.285156zm0 0" fill="#bab8b9"/><path d="m483.355469 359.914062c0 43.429688-35.207031 78.636719-78.640625 78.636719-43.429688 0-78.640625-35.207031-78.640625-78.636719 0-43.433593 35.210937-78.640624 78.640625-78.640624 43.433594 0 78.640625 35.207031 78.640625 78.640624zm0 0" fill="#efedee"/><path d="m346.679688 359.914062c0-39.9375 29.777343-72.898437 68.339843-77.949218-3.375-.441406-6.808593-.691406-10.304687-.691406-43.429688 0-78.640625 35.207031-78.640625 78.640624 0 43.429688 35.210937 78.640626 78.640625 78.640626 3.496094 0 6.929687-.253907 10.304687-.695313-38.5625-5.046875-68.339843-38.007813-68.339843-77.945313zm0 0" fill="#d4d2d3"/><g fill="#3a484a"><path d="m404.714844 281.273438c-2.605469 0-5.183594.132812-7.726563.382812v20.710938c0 4.269531 3.460938 7.726562 7.726563 7.726562 4.269531 0 7.726562-3.457031 7.726562-7.726562v-20.710938c-2.542968-.25-5.117187-.382812-7.726562-.382812zm0 0"/><path d="m454.589844 299.113281-14.648438 14.648438c-3.015625 3.015625-3.015625 7.90625 0 10.925781 1.507813 1.507812 3.488282 2.261719 5.464844 2.261719s3.953125-.753907 5.460938-2.261719l14.648437-14.648438c-3.277344-3.988281-6.9375-7.648437-10.925781-10.925781zm0 0"/><path d="m454.535156 359.914062c0 4.265626 3.457032 7.726563 7.726563 7.726563h20.714843c.246094-2.542969.378907-5.121094.378907-7.726563 0-2.609374-.132813-5.183593-.378907-7.726562h-20.714843c-4.269531 0-7.726563 3.457031-7.726563 7.726562zm0 0"/><path d="m465.515625 409.785156-14.648437-14.644531c-3.015626-3.019531-7.90625-3.019531-10.925782 0-3.015625 3.015625-3.015625 7.90625 0 10.925781l14.648438 14.648438c3.988281-3.277344 7.648437-6.9375 10.925781-10.929688zm0 0"/><path d="m404.714844 409.730469c-4.265625 0-7.726563 3.460937-7.726563 7.726562v20.714844c2.542969.246094 5.121094.382813 7.726563.382813 2.609375 0 5.183594-.136719 7.726562-.382813v-20.714844c0-4.265625-3.457031-7.726562-7.726562-7.726562zm0 0"/><path d="m358.5625 395.140625-14.644531 14.644531c3.273437 3.992188 6.9375 7.652344 10.925781 10.929688l14.648438-14.648438c3.015624-3.019531 3.015624-7.910156 0-10.925781-3.019532-3.019531-7.910157-3.019531-10.929688 0zm0 0"/><path d="m347.171875 352.1875h-20.714844c-.246093 2.542969-.382812 5.117188-.382812 7.726562 0 2.605469.136719 5.183594.382812 7.726563h20.714844c4.269531 0 7.726563-3.460937 7.726563-7.726563 0-4.269531-3.457032-7.726562-7.726563-7.726562zm0 0"/><path d="m343.917969 310.039062 14.644531 14.648438c1.507812 1.507812 3.488281 2.261719 5.464844 2.261719 1.976562 0 3.953125-.753907 5.460937-2.261719 3.019531-3.019531 3.019531-7.910156 0-10.925781l-14.644531-14.648438c-3.988281 3.277344-7.652344 6.9375-10.925781 10.925781zm0 0"/><path d="m429.15625 367.640625h-24.4375c-4.269531 0-7.726562-3.460937-7.726562-7.726563v-24.441406c0-4.269531 3.457031-7.726562 7.726562-7.726562 4.265625 0 7.722656 3.457031 7.722656 7.726562v16.714844h16.714844c4.269531 0 7.726562 3.457031 7.726562 7.726562 0 4.265626-3.457031 7.726563-7.726562 7.726563zm0 0"/><path d="m159.808594 111.332031c-4.265625 0-7.726563-3.460937-7.726563-7.726562v-14.082031c0-4.265626 3.460938-7.726563 7.726563-7.726563 4.269531 0 7.726562 3.460937 7.726562 7.726563v14.082031c0 4.265625-3.457031 7.726562-7.726562 7.726562zm0 0"/><path d="m315.429688 111.332031c-4.269532 0-7.726563-3.460937-7.726563-7.726562v-14.082031c0-4.265626 3.457031-7.726563 7.726563-7.726563 4.265624 0 7.726562 3.460937 7.726562 7.726563v14.082031c0 4.265625-3.460938 7.726562-7.726562 7.726562zm0 0"/><path d="m237.621094 118.847656c-9.714844 0-18.835938-4.058594-25.023438-11.136718-2.808594-3.214844-2.480468-8.09375.730469-10.902344 3.214844-2.808594 8.09375-2.480469 10.902344.730468 3.253906 3.722657 8.132812 5.855469 13.390625 5.855469 5.253906 0 10.132812-2.132812 13.386718-5.855469 2.808594-3.210937 7.6875-3.539062 10.902344-.730468 3.210938 2.808594 3.539063 7.6875.730469 10.902344-6.1875 7.078124-15.308594 11.136718-25.019531 11.136718zm0 0"/></g></svg>