<svg viewBox="-51 0 512 512.001" xmlns="http://www.w3.org/2000/svg"><path d="m335.648438 267.164062h-260.84375s-44.160157 59.21875-20.265626 105.007813c23.894532 45.789063 61.296876 56.863281 61.296876 56.863281h178.78125s37.402343-11.074218 61.296874-56.863281c23.894532-45.789063-20.265624-105.007813-20.265624-105.007813zm0 0" fill="#eb8f59"/><path d="m42.28125 512c0-89.992188 72.953125-162.945312 162.945312-162.945312 89.992188 0 162.945313 72.953124 162.945313 162.945312zm0 0" fill="#fd6f71"/><path d="m220.679688 349.789062c-5.089844-.480468-10.238282-.734374-15.453126-.734374-89.992187 0-162.945312 72.953124-162.945312 162.945312h30.902344c0-84.78125 64.75-154.425781 147.496094-162.210938zm0 0" fill="#e36465"/><path d="m410.453125 203.800781c0 19.519531-15.824219 35.34375-35.34375 35.34375s-35.34375-15.824219-35.34375-35.34375 15.824219-35.34375 35.34375-35.34375 35.34375 15.824219 35.34375 35.34375zm0 0" fill="#cc9883"/><path d="m70.6875 203.800781c0 19.519531-15.824219 35.34375-35.34375 35.34375s-35.34375-15.824219-35.34375-35.34375 15.824219-35.34375 35.34375-35.34375 35.34375 15.824219 35.34375 35.34375zm0 0" fill="#cc9883"/><path d="m265.496094 368.320312c0-55.867187-26.984375-101.15625-60.269532-101.15625-33.285156 0-60.269531 45.289063-60.269531 101.15625 0 55.871094 26.984375 101.160157 60.269531 101.160157 33.285157 0 60.269532-45.289063 60.269532-101.160157zm0 0" fill="#efedee"/><path d="m249.386719 361.78125c0 24.390625-19.769531 44.164062-44.160157 44.164062-24.390624 0-44.160156-19.773437-44.160156-44.164062 0-24.386719 19.769532-44.160156 44.160156-44.160156 24.390626 0 44.160157 19.773437 44.160157 44.160156zm0 0" fill="#e3b098"/><path d="m205.226562 317.621094c-24.390624 0-44.160156 19.773437-44.160156 44.160156 0 8.09375 2.1875 15.667969 5.984375 22.191406 12.347657 2.472656 25.113281 3.78125 38.175781 3.78125 13.066407 0 25.828126-1.304687 38.175782-3.78125 3.800781-6.523437 5.988281-14.097656 5.988281-22.191406-.003906-24.386719-19.773437-44.160156-44.164063-44.160156zm0 0" fill="#cc9883"/><path d="m383.519531 193.878906c0 98.46875-79.824219 178.292969-178.292969 178.292969s-178.292968-79.824219-178.292968-178.292969 79.824218-178.292968 178.292968-178.292968 178.292969 79.824218 178.292969 178.292968zm0 0" fill="#fbc4ac"/><path d="m205.226562 15.585938c-97.921874 0-177.394531 78.941406-178.273437 176.660156 13.699219-1.03125 35.335937-3.859375 61.070313-11.484375 44.300781-13.128907 83.660156-35.140625 117.203124-65.511719 33.542969 30.371094 72.898438 52.378906 117.199219 65.507812 25.734375 7.628907 47.375 10.457032 61.074219 11.488282-.878906-97.71875-80.351562-176.660156-178.273438-176.660156zm0 0" fill="#e3b098"/><path d="m58.101562 193.878906c0-93.21875 71.539063-169.714844 162.707032-177.609375-5.136719-.445312-10.332032-.683593-15.582032-.683593-98.46875 0-178.292968 79.824218-178.292968 178.292968s79.824218 178.292969 178.292968 178.292969c5.25 0 10.445313-.242187 15.582032-.6875-91.167969-7.894531-162.707032-84.390625-162.707032-177.605469zm0 0" fill="#e3b098"/><path d="m205.226562 0c-101.292968 0-184.691406 78.082031-193.167968 177.21875 0 0 106.714844 2.976562 193.167968-83.476562 86.453126 86.453124 193.167969 83.476562 193.167969 83.476562-8.476562-99.136719-91.875-177.21875-193.167969-177.21875zm0 0" fill="#fa9f6a"/><path d="m220.808594.632812c-5.140625-.410156-10.335938-.632812-15.582032-.632812-101.292968 0-184.691406 78.082031-193.167968 177.21875 0 0 12.089844.332031 31.410156-2.511719 9.15625-92.824219 84.039062-166.617187 177.339844-174.074219zm0 0" fill="#eb8f59"/><g fill="#464c51"><path d="m205.226562 253.914062c-9.839843 0-19.003906-5.300781-23.914062-13.839843-2.0625-3.589844-.824219-8.175781 2.765625-10.242188 3.585937-2.0625 8.175781-.828125 10.238281 2.765625 2.242188 3.894532 6.421875 6.316406 10.910156 6.316406 4.488282 0 8.667969-2.417968 10.910157-6.316406 2.0625-3.589844 6.652343-4.828125 10.238281-2.761718 3.589844 2.0625 4.828125 6.648437 2.765625 10.238281-4.910156 8.539062-14.074219 13.839843-23.914063 13.839843zm0 0"/><path d="m271.394531 223.5c-4.144531 0-7.5-3.359375-7.5-7.5v-11.796875c0-4.144531 3.355469-7.5 7.5-7.5s7.5 3.355469 7.5 7.5v11.796875c0 4.140625-3.355469 7.5-7.5 7.5zm0 0"/><path d="m139.058594 223.5c-4.144532 0-7.5-3.359375-7.5-7.5v-11.796875c0-4.144531 3.355468-7.5 7.5-7.5 4.144531 0 7.5 3.355469 7.5 7.5v11.796875c0 4.140625-3.355469 7.5-7.5 7.5zm0 0"/></g><path d="m277.292969 245.800781h-11.796875c-4.144532 0-7.5-3.359375-7.5-7.5 0-4.144531 3.355468-7.5 7.5-7.5h11.796875c4.144531 0 7.5 3.355469 7.5 7.5 0 4.140625-3.359375 7.5-7.5 7.5zm0 0" fill="#fd6f71"/><path d="m144.957031 245.800781h-11.796875c-4.144531 0-7.5-3.359375-7.5-7.5 0-4.144531 3.355469-7.5 7.5-7.5h11.796875c4.140625 0 7.5 3.355469 7.5 7.5 0 4.140625-3.359375 7.5-7.5 7.5zm0 0" fill="#fd6f71"/></svg>